:SAMPLES-PER-SECOND 30
:FULLY-SPECIFIED
:DEGREES
577
root  -54.5798 5.62121 -21.8545 157.426 -54.0696 -164.295
RightUpLeg  -85.6436 -1.59939 16.202
RightLeg  161.035 13.9445 -5.47761
RightFoot  -56.1537 5.77494 11.4167
RightToes  9.6145 0.0139237 0.100639
Spine  26.7416 3.0506 3.29364
Spine1  42.311 4.12782 5.70219
HEad  -113.634 -54.6853 47.5559
LeftShoulder1  -1.94126e-019 -3.10601e-018 -2.51263e-017
LeftArm  47.5973 -65.7793 -131.559
LeftForeArm  56.1655 -3.29007 -0.532292
LeftHand  -0.580837 -3.61619 7.74315
RightShoulder  -4.96962e-017 0 -2.36833e-017
RightArm  10.2385 72.6744 107.977
RightForeArm  79.4674 1.80843 0.227232
RightHand  -0.356638 -1.53019 -10.5973
LeftUpLeg  -76.7316 13.7765 39.4989
LeftLeg  164.814 -0.782509 0.270228
LeftFoot  -54.3999 -7.13654 -13.675
LeftToes  9.12837 2.03064e-006 1.83538e-008
578
root  -54.5631 5.62774 -21.8777 157.261 -53.8053 -164.245
RightUpLeg  -85.5296 -1.34135 16.6241
RightLeg  160.925 14.1586 -5.59463
RightFoot  -56.1365 5.84297 11.5482
RightToes  10.033 0.0139926 0.101747
Spine  26.8304 3.13117 3.32338
Spine1  42.4627 4.23817 5.74943
HEad  -112.041 -53.6654 45.8762
LeftShoulder1  -1.94126e-019 -3.10601e-018 -2.51263e-017
LeftArm  47.5015 -65.9814 -131.75
LeftForeArm  56.6368 -3.19764 -0.51489
LeftHand  -0.593123 -3.69068 7.84098
RightShoulder  -4.96962e-017 0 -2.36833e-017
RightArm  10.4577 72.8374 108.395
RightForeArm  79.5268 1.71095 0.20986
RightHand  -0.36421 -1.51001 -10.7723
LeftUpLeg  -76.2881 13.9646 40.1988
LeftLeg  164.754 -0.328693 0.115533
LeftFoot  -54.3562 -6.99523 -13.4155
LeftToes  8.56697 2.03064e-006 1.83538e-008
579
root  -54.56 5.62728 -21.8802 157.125 -53.8515 -164.157
RightUpLeg  -85.4283 -1.38353 16.6452
RightLeg  160.932 14.1547 -5.59122
RightFoot  -56.1096 5.84457 11.5574
RightToes  9.63429 0.0140767 0.102567
Spine  26.8422 3.1192 3.37726
Spine1  42.4662 4.15319 5.87274
HEad  -110.228 -52.008 43.7964
LeftShoulder1  -1.94126e-019 -3.10601e-018 -2.51263e-017
LeftArm  47.3643 -66.0381 -131.683
LeftForeArm  56.6927 -3.26622 -0.526432
LeftHand  -0.605057 -3.74872 7.946
RightShoulder  -4.96962e-017 0 -2.36833e-017
RightArm  10.4543 72.8831 108.494
RightForeArm  79.4846 1.73525 0.214309
RightHand  -0.359067 -1.62759 -10.9366
LeftUpLeg  -76.3382 13.9613 40.2616
LeftLeg  164.751 -0.314664 0.110739
LeftFoot  -54.362 -6.99551 -13.4144
LeftToes  8.86756 2.03064e-006 1.83538e-008
580
root  -54.5636 5.62856 -21.8777 156.855 -54.0025 -163.986
RightUpLeg  -85.2167 -1.51202 16.6502
RightLeg  160.935 14.2313 -5.62117
RightFoot  -56.1751 5.91335 11.6712
RightToes  9.60872 0.0141765 0.103008
Spine  26.8897 3.07213 3.47301
Spine1  42.5353 4.02561 6.01132
HEad  -108.567 -50.0048 41.7042
LeftShoulder1  -1.94126e-019 -3.10601e-018 -2.51263e-017
LeftArm  47.1792 -66.1475 -131.664
LeftForeArm  56.7198 -3.27351 -0.527438
LeftHand  -0.611716 -3.74198 8.03587
RightShoulder  -4.96962e-017 0 -2.36833e-017
RightArm  10.5688 72.9762 108.695
RightForeArm  79.4968 1.75237 0.21719
RightHand  -0.363644 -1.65651 -11.1615
LeftUpLeg  -76.4151 13.8669 40.2449
LeftLeg  164.754 -0.252578 0.0894314
LeftFoot  -54.3833 -6.95953 -13.3389
LeftToes  9.08787 2.03064e-006 1.83538e-008
581
root  -54.5891 5.63317 -21.8667 156.21 -54.3359 -163.636
RightUpLeg  -84.618 -1.91136 16.4988
RightLeg  160.952 14.2506 -5.62416
RightFoot  -56.4401 6.01928 11.807
RightToes  9.70093 0.0142922 0.10298
Spine  27.0796 2.94682 3.66256
Spine1  42.8397 3.7617 6.23391
HEad  -107.3 -48.5232 39.9366
LeftShoulder1  -1.94126e-019 -3.10601e-018 -2.51263e-017
LeftArm  46.9936 -66.3211 -132.006
LeftForeArm  56.9457 -3.17894 -0.51043
LeftHand  -0.612655 -3.68568 8.09418
RightShoulder  -4.96962e-017 0 -2.36833e-017
RightArm  10.8098 73.154 108.895
RightForeArm  79.4906 1.82379 0.229481
RightHand  -0.377249 -1.51962 -11.1914
LeftUpLeg  -76.4773 13.4287 40.1208
LeftLeg  164.797 -0.171539 0.0614935
LeftFoot  -54.5306 -6.93936 -13.258
LeftToes  9.57332 2.03064e-006 1.83538e-008
582
root  -54.6183 5.63076 -21.8425 155.744 -54.834 -163.457
RightUpLeg  -84.1177 -2.38873 16.1169
RightLeg  161.046 14.2296 -5.58886
RightFoot  -56.6945 6.11522 11.9251
RightToes  9.76224 0.0144242 0.102394
Spine  27.2188 2.81 3.75453
Spine1  43.052 3.51705 6.33188
HEad  -106.316 -47.1298 38.6613
LeftShoulder1  -1.94126e-019 -3.10601e-018 -2.51263e-017
LeftArm  47.0685 -66.4127 -132.434
LeftForeArm  57.0898 -3.01041 -0.480603
LeftHand  -0.612963 -3.59975 8.17012
RightShoulder  -4.96962e-017 0 -2.36833e-017
RightArm  10.8864 73.272 109.05
RightForeArm  79.6154 1.80286 0.225435
RightHand  -0.380157 -1.5212 -11.2835
LeftUpLeg  -76.6959 12.9118 39.5795
LeftLeg  164.851 -0.412849 0.143595
LeftFoot  -54.7035 -7.02763 -13.3778
LeftToes  10.3382 2.03064e-006 1.83538e-008
583
root  -54.6511 5.64094 -21.8126 155.291 -55.3887 -163.369
RightUpLeg  -83.5055 -2.88798 15.5692
RightLeg  161.113 14.1855 -5.55218
RightFoot  -57.0246 6.23659 12.0706
RightToes  10.13 0.0145728 0.101159
Spine  27.3986 2.66979 3.81789
Spine1  43.3165 3.27839 6.39478
HEad  -105.538 -46.1115 37.7701
LeftShoulder1  -1.94126e-019 -3.10601e-018 -2.51263e-017
LeftArm  47.3724 -66.4607 -132.83
LeftForeArm  57.1369 -2.89654 -0.460786
LeftHand  -0.605958 -3.56146 8.11203
RightShoulder  -4.96962e-017 0 -2.36833e-017
RightArm  11.0614 73.3927 109.119
RightForeArm  79.6778 1.78913 0.222913
RightHand  -0.385788 -1.50946 -11.1778
LeftUpLeg  -76.8804 12.3414 38.8359
LeftLeg  164.853 -0.588076 0.203331
LeftFoot  -54.8116 -7.03945 -13.3694
LeftToes  10.4794 2.03064e-006 1.83538e-008
584
root  -54.7104 5.62871 -21.744 155.157 -56.3608 -163.803
RightUpLeg  -82.801 -3.70447 14.1608
RightLeg  161.41 13.869 -5.34311
RightFoot  -57.4714 6.31655 12.1103
RightToes  10.2953 0.0147383 0.0991862
Spine  27.6272 2.39397 3.74113
Spine1  43.6664 2.90566 6.18415
HEad  -104.734 -45.1354 36.6733
LeftShoulder1  -1.94126e-019 -3.10601e-018 -2.51263e-017
LeftArm  47.6772 -66.553 -133.17
LeftForeArm  57.2575 -2.96994 -0.47429
LeftHand  -0.580493 -3.37263 7.93811
RightShoulder  -4.96962e-017 0 -2.36833e-017
RightArm  11.3112 73.5189 109.183
RightForeArm  79.7186 1.82981 0.22977
RightHand  -0.387396 -1.38411 -11.1223
LeftUpLeg  -77.301 11.3751 36.8312
LeftLeg  164.945 -1.62528 0.553977
LeftFoot  -55.0498 -7.34736 -13.8862
LeftToes  11.7197 2.03064e-006 1.83538e-008
585
root  -54.7525 5.62641 -21.6764 155.542 -57.2521 -164.597
RightUpLeg  -82.3169 -4.22543 12.7004
RightLeg  161.651 13.596 -5.17015
RightFoot  -57.7498 6.41304 12.219
RightToes  9.76369 0.0149211 0.0940022
Spine  27.724 2.16351 3.563
Spine1  43.8206 2.80323 5.66883
HEad  -103.119 -43.9046 34.9855
LeftShoulder1  -1.94126e-019 -3.10601e-018 -2.51263e-017
LeftArm  48.0006 -66.7036 -133.634
LeftForeArm  57.3373 -2.51834 -0.394069
LeftHand  -0.608064 -3.53363 8.1629
RightShoulder  -4.96962e-017 0 -2.36833e-017
RightArm  11.8947 73.566 109.737
RightForeArm  79.8039 1.66141 0.200095
RightHand  -0.384609 -1.40204 -11.0889
LeftUpLeg  -77.7588 10.7698 34.9525
LeftLeg  164.921 -2.2693 0.773351
LeftFoot  -55.1687 -7.41896 -13.9866
LeftToes  12.8455 2.03064e-006 1.83538e-008
586
root  -54.817 5.6121 -21.5741 156.143 -58.4775 -165.709
RightUpLeg  -81.669 -5.08896 10.4258
RightLeg  162.036 12.8919 -4.79586
RightFoot  -58.094 6.39644 12.1068
RightToes  8.50199 0.0151213 0.0817173
Spine  27.8606 1.79489 3.33093
Spine1  44.049 2.55285 4.98283
HEad  -100.925 -42.1605 32.2924
LeftShoulder1  -1.94126e-019 -3.10601e-018 -2.51263e-017
LeftArm  48.0582 -66.9127 -134.036
LeftForeArm  57.5815 -2.27948 -0.351425
LeftHand  -0.6197 -3.61845 8.24091
RightShoulder  -4.96962e-017 0 -2.36833e-017
RightArm  12.6084 73.6667 110.296
RightForeArm  80.3945 1.47037 0.164772
RightHand  -0.402343 -1.36704 -11.51
LeftUpLeg  -78.4767 9.79041 31.9323
LeftLeg  164.948 -3.79713 1.28935
LeftFoot  -55.317 -7.77947 -14.6225
LeftToes  14.4528 2.03064e-006 1.83538e-008
